REM GENRE Hardcore
REM DATE 2006
REM COMMENT "DCue v1.2dev"
PERFORMER "Various"
TITLE "Clubland X-Treme Hardcore 3"
FILE "m218406.wav" WAVE
	TRACK 01 AUDIO
		TITLE "Castles In The Sky (DS Remix)"
		PERFORMER "Liz Kay"
		INDEX 01 00:00:00
	TRACK 02 AUDIO
		TITLE "Lost The Plot"
		PERFORMER "Darren Styles Wayne G"
		INDEX 01 05:18:00
	TRACK 03 AUDIO
		TITLE "Piece Of Heaven"
		PERFORMER "Wave"
		INDEX 01 08:28:00
	TRACK 04 AUDIO
		TITLE "Here Come The Drums"
		PERFORMER "United In Dance"
		INDEX 01 12:22:00
	TRACK 05 AUDIO
		TITLE "Everytime We Touch (Styles & Breeze Remix)"
		PERFORMER "Cascada"
		INDEX 01 15:37:00
	TRACK 06 AUDIO
		TITLE "I Say I Love You"
		PERFORMER "Darren Styles Francis Hill"
		INDEX 01 18:58:00
	TRACK 07 AUDIO
		TITLE "Nobody Likes The Records"
		PERFORMER "Dougal & Gammer"
		INDEX 01 23:27:00
	TRACK 08 AUDIO
		TITLE "Skydivin (Vocal Mix)"
		PERFORMER "Darren Styles"
		INDEX 01 27:33:00
	TRACK 09 AUDIO
		TITLE "Face Down Ass Up (DS Remix)"
		PERFORMER "Deja Vu"
		INDEX 01 32:02:00
	TRACK 10 AUDIO
		TITLE "Only You (Re-Con Remix)"
		PERFORMER "Hyperlogic"
		INDEX 01 35:45:00
	TRACK 11 AUDIO
		TITLE "Save Me (Re-Con Remix)"
		PERFORMER "Darren Styles"
		INDEX 01 40:13:00
	TRACK 12 AUDIO
		TITLE "Be With You"
		PERFORMER "Sy & Unknown Lou Lou"
		INDEX 01 43:55:00
	TRACK 13 AUDIO
		TITLE "Sure Feels Good"
		PERFORMER "Styles Re-Con"
		INDEX 01 47:45:00
	TRACK 14 AUDIO
		TITLE "Do You Want Me Honey"
		PERFORMER "Styles & Breeze"
		INDEX 01 52:58:00
	TRACK 15 AUDIO
		TITLE "Silver Water (DS Remix)"
		PERFORMER "Vince Nysse N J Hinton"
		INDEX 01 56:44:00
	TRACK 16 AUDIO
		TITLE "Boom Daka"
		PERFORMER "United In Dance"
		INDEX 01 61:04:00
	TRACK 17 AUDIO
		TITLE "Make This Happen"
		PERFORMER "Metro"
		INDEX 01 64:47:00
